<?xml version="1.0" encoding="iso-8859-1"?>
<!-- Generator: Adobe Illustrator 19.0.0, SVG Export Plug-In . SVG Version: 6.00 Build 0)  -->
<svg version="1.1" id="Capa_1" xmlns="http://www.w3.org/2000/svg" xmlns:xlink="http://www.w3.org/1999/xlink" x="0px" y="0px"
	 viewBox="0 0 512 512" style="enable-background:new 0 0 512 512;" xml:space="preserve">
<g>
	<g>
		<g>
			<path d="M512,254.375c0-15.531-8.96-29.867-26.624-42.923c0.692-2.704,1.036-5.486,1.024-8.277
				c0-18.851-15.282-34.133-34.133-34.133c-3.443-0.011-6.868,0.508-10.155,1.536c-2.046,0.611-4.02,1.44-5.888,2.475
				c-4.531,2.401-8.445,5.818-11.435,9.984c-9.472-2.987-19.797-5.717-30.891-8.192c4.15-13.199,7.568-26.617,10.24-40.192
				C414.293,82.257,407.125,45.99,384,32.679c-23.125-13.312-58.112-1.451-98.389,33.536c-10.425,9.117-20.339,18.803-29.696,29.013
				C203.605,38.567,157.269,15.783,128,32.679c-9.216,5.376-20.48,17.152-23.637,43.179c-1.214,0.194-2.413,0.479-3.584,0.853
				c-2.033,0.648-4.003,1.476-5.888,2.475c-5.996,3.18-10.9,8.084-14.08,14.08c-1.014,1.878-1.843,3.85-2.475,5.888
				c-1.029,3.286-1.547,6.711-1.536,10.155c-0.019,18.383,14.565,33.458,32.939,34.048c2.133,9.899,4.949,20.48,8.448,31.488
				C42.923,191.74,0,220.583,0,254.375s42.837,62.635,118.101,79.531c-4.15,13.199-7.568,26.617-10.24,40.192
				C97.707,426.492,104.875,462.758,128,476.07c6.395,3.627,13.641,5.483,20.992,5.376c21.248,0,47.872-13.312,77.397-38.912
				c10.384-9.131,20.296-18.787,29.696-28.928c6.912,7.509,13.909,14.592,20.907,21.163c-2.595,4.887-3.944,10.339-3.925,15.872
				c0,18.851,15.282,34.133,34.133,34.133c3.444,0.01,6.868-0.508,10.155-1.536c2.033-0.648,4.003-1.476,5.888-2.475
				c3.358-1.738,6.367-4.081,8.875-6.912h0.085c9.552,4.689,19.998,7.279,30.635,7.595c7.407,0.126,14.714-1.73,21.163-5.376
				c29.269-16.896,32.768-68.523,9.813-142.165C469.077,317.009,512,288.167,512,254.375z M296.875,79.1
				c26.112-22.699,49.237-34.816,65.792-34.816c4.472-0.112,8.893,0.978,12.8,3.157c16.128,9.301,20.48,39.936,11.947,83.968
				c-2.674,13.463-6.092,26.767-10.24,39.851c-22.519-4.187-45.252-7.122-68.096-8.789c-12.775-18.967-26.681-37.148-41.643-54.443
				C276.663,97.808,286.494,88.148,296.875,79.1z M159.659,273.745c4.779,9.216,9.813,18.432,15.019,27.563
				c5.376,9.301,10.837,18.261,16.299,26.795c-17.664-1.621-34.645-4.011-50.688-6.997c2.475-6.912,5.12-13.995,8.021-21.163
				L159.659,273.745z M159.573,235.004c-7.253-15.872-13.739-31.744-19.2-47.36c16.043-2.987,33.024-5.376,50.688-6.997
				c-5.632,8.704-11.093,17.664-16.384,26.795C169.387,216.572,164.352,225.873,159.573,235.004z M189.525,292.775
				c-7.424-12.715-14.336-25.6-20.651-38.4l20.651-38.4c7.424-12.8,15.019-25.173,22.955-37.035c28.986-1.792,58.054-1.792,87.04,0
				c7.68,11.52,15.332,23.865,22.955,37.035c7.424,12.715,14.336,25.6,20.651,38.4c-6.315,12.8-13.198,25.6-20.651,38.4
				c-7.424,12.8-15.019,25.173-22.955,37.035c-28.986,1.792-58.054,1.792-87.04,0C204.8,318.289,197.148,305.944,189.525,292.775z
				 M337.323,301.308c5.291-9.216,10.325-18.432,15.104-27.563c7.253,15.872,13.739,31.744,19.2,47.36
				c-16.043,2.987-33.024,5.376-50.688,6.997C326.571,319.398,332.032,310.439,337.323,301.308z M352.341,235.004
				c-4.779-9.216-9.813-18.432-15.019-27.563c-5.376-9.301-10.837-18.261-16.299-26.795c17.664,1.621,34.645,4.011,50.688,6.997
				C366.251,203.004,359.765,218.876,352.341,235.004z M256,120.828c10.581,12.459,21.163,25.941,31.403,40.363
				c-21.052-0.853-41.685-0.853-62.737,0C234.883,146.718,245.328,133.264,256,120.828z M136.533,47.526
				c20.992-12.203,63.061,11.52,107.947,60.501c-14.905,17.298-28.754,35.479-41.472,54.443c-22.848,1.625-45.584,4.56-68.096,8.789
				c-3.499-11.093-6.315-21.675-8.533-31.573c6.27-3.128,11.402-8.142,14.677-14.336c1.014-1.878,1.842-3.85,2.475-5.888
				c2.048-6.615,2.048-13.694,0-20.309c-0.632-2.038-1.461-4.01-2.475-5.888c-3.18-5.996-8.084-10.9-14.08-14.08
				c-1.777-0.954-3.633-1.754-5.547-2.389C121.839,65.273,127.38,54.537,136.533,47.526z M17.067,254.375
				c0-24.235,41.472-48.811,106.411-63.232c7.554,21.599,16.359,42.741,26.368,63.317c-9.966,20.538-18.77,41.62-26.368,63.147
				C58.539,303.185,17.067,278.609,17.067,254.375z M215.125,429.649c-33.792,29.44-62.464,40.96-78.592,31.659
				s-20.48-39.936-11.947-83.968c2.674-13.463,6.092-26.767,10.24-39.851c22.519,4.187,45.252,7.122,68.096,8.789
				c12.775,18.967,26.681,37.148,41.643,54.443C235.337,410.941,225.506,420.601,215.125,429.649z M256,387.921
				c-10.667-12.459-21.134-25.941-31.403-40.448c10.667,0.512,21.163,0.768,31.403,0.768s20.736-0.256,31.403-0.768
				C277.163,361.98,266.695,375.463,256,387.921z M375.467,461.308c-10.069,5.888-23.723,2.56-35.157-2.475
				c0.692-2.675,1.036-5.429,1.024-8.192c0.01-3.443-0.508-6.868-1.536-10.155c-0.632-2.038-1.461-4.01-2.475-5.888
				c-3.18-5.996-8.084-10.9-14.08-14.08c-1.885-0.999-3.855-1.827-5.888-2.475c-6.615-2.048-13.694-2.048-20.309,0
				c-2.033,0.648-4.003,1.476-5.888,2.475c-0.939,0.512-1.792,1.024-2.645,1.536c-7.083-6.571-14.165-13.739-20.992-21.333
				c14.905-17.298,28.754-35.479,41.472-54.443c22.82-1.625,45.527-4.56,68.011-8.789
				C397.056,400.977,396.544,449.105,375.467,461.308z M388.523,317.607c-7.554-21.599-16.359-42.741-26.368-63.317
				c10.018-20.544,18.823-41.657,26.368-63.232c10.752,2.389,20.736,5.035,29.867,7.936c-0.591,4.815-0.155,9.702,1.28,14.336
				c0.632,2.038,1.461,4.01,2.475,5.888c3.18,5.996,8.084,10.9,14.08,14.08c1.885,0.999,3.856,1.827,5.888,2.475
				c6.615,2.048,13.694,2.048,20.309,0c2.038-0.632,4.01-1.461,5.888-2.475c3.257-1.749,6.223-3.995,8.789-6.656
				c9.803,6.102,16.349,16.282,17.835,27.733C494.933,278.609,453.461,303.185,388.523,317.607z"/>
			<path d="M214.187,262.737c0.256,1.365,0.597,2.731,0.939,4.011c0.408,1.335,0.892,2.646,1.451,3.925
				c0.318,0.82,0.689,1.618,1.109,2.389c0.171,0.512,0.427,0.939,0.597,1.365c0.085,0.085,0.171,0.171,0.171,0.256
				c0.683,1.109,1.28,2.219,2.048,3.328c0.606,1.04,1.321,2.013,2.133,2.901c0.981,1.282,2.036,2.508,3.157,3.669
				c16.714,16.61,43.702,16.61,60.416,0c1.109-1.195,2.219-2.389,3.243-3.669c0.759-0.911,1.443-1.881,2.048-2.901
				c0.768-1.109,1.365-2.219,2.048-3.328c0-0.085,0.085-0.171,0.171-0.256c0.171-0.427,0.427-0.853,0.597-1.365
				c0.421-0.772,0.791-1.57,1.109-2.389c0.558-1.28,1.043-2.59,1.451-3.925c0.341-1.28,0.683-2.645,0.939-4.011
				c0.085-0.427,0.171-0.939,0.256-1.365c0.414-2.309,0.614-4.651,0.597-6.997c0-1.195-0.085-2.389-0.171-3.584
				c-0.085-1.195-0.256-2.304-0.427-3.413c-0.085-0.427-0.171-0.939-0.256-1.365c-0.256-1.365-0.597-2.731-0.939-4.011
				c-0.408-1.335-0.892-2.646-1.451-3.925c-0.318-0.82-0.689-1.618-1.109-2.389c-0.171-0.512-0.427-0.939-0.597-1.365
				c-0.085-0.085-0.171-0.171-0.171-0.256c-0.683-1.109-1.28-2.219-2.048-3.328c-0.604-1.02-1.289-1.99-2.048-2.901
				c-2.02-2.546-4.341-4.839-6.912-6.827c-0.888-0.813-1.861-1.528-2.901-2.133c-1.563-1.084-3.219-2.026-4.949-2.816
				c-0.772-0.421-1.57-0.791-2.389-1.109c-1.28-0.558-2.59-1.043-3.925-1.451c-1.28-0.341-2.645-0.683-4.011-0.939l-1.365-0.256
				c-1.972-0.343-3.971-0.515-5.973-0.512c-0.337-0.071-0.68-0.099-1.024-0.085c-2.346-0.017-4.688,0.183-6.997,0.597l-1.365,0.256
				c-1.365,0.256-2.731,0.597-4.011,0.939c-1.335,0.408-2.646,0.892-3.925,1.451c-0.82,0.318-1.618,0.689-2.389,1.109
				c-1.73,0.789-3.387,1.732-4.949,2.816c-1.04,0.606-2.013,1.321-2.901,2.133c-2.564,1.967-4.86,4.262-6.827,6.827
				c-0.813,0.888-1.528,1.861-2.133,2.901c-0.768,1.109-1.365,2.219-2.048,3.328c0,0.085-0.085,0.171-0.171,0.256
				c-0.171,0.427-0.427,0.853-0.597,1.365c-0.421,0.772-0.791,1.57-1.109,2.389c-0.558,1.28-1.043,2.59-1.451,3.925
				c-0.341,1.28-0.683,2.645-0.939,4.011c-0.085,0.427-0.171,0.939-0.256,1.365c-0.171,1.109-0.341,2.219-0.427,3.413
				c-0.085,1.195-0.171,2.389-0.171,3.584c-0.017,2.346,0.183,4.688,0.597,6.997C214.016,261.799,214.101,262.311,214.187,262.737z"
				/>
		</g>
	</g>
</g>
<g>
</g>
<g>
</g>
<g>
</g>
<g>
</g>
<g>
</g>
<g>
</g>
<g>
</g>
<g>
</g>
<g>
</g>
<g>
</g>
<g>
</g>
<g>
</g>
<g>
</g>
<g>
</g>
<g>
</g>
</svg>
